<?xml version="1.0" standalone="no"?>
<!DOCTYPE svg PUBLIC "-//W3C//DTD SVG 20010904//EN"
 "http://www.w3.org/TR/2001/REC-SVG-20010904/DTD/svg10.dtd">
<svg version="1.0" xmlns="http://www.w3.org/2000/svg"
 width="260.000000pt" height="260.000000pt" viewBox="0 0 260.000000 260.000000"
 preserveAspectRatio="xMidYMid meet">
<metadata>
Created by potrace 1.11, written by Peter Selinger 2001-2013
</metadata>
<g transform="translate(0.000000,260.000000) scale(0.100000,-0.100000)"
fill="#000000" stroke="none">
<path d="M1150 2593 c-291 -44 -519 -149 -720 -330 -286 -257 -434 -604 -425
-993 2 -80 6 -158 10 -175 21 -100 28 -128 51 -200 61 -192 163 -356 318 -510
197 -196 395 -303 667 -361 117 -25 381 -25 499 0 350 75 641 270 832 558 92
139 173 335 194 473 3 22 10 60 14 85 9 48 6 306 -4 355 -4 17 -11 53 -16 80
-29 142 -104 317 -195 456 -61 92 -247 279 -340 341 -137 91 -318 169 -460
198 -27 5 -63 12 -80 16 -34 7 -307 13 -345 7z m420 -384 c62 -10 118 -23 124
-28 9 -8 13 -109 7 -177 -1 -8 -20 -6 -62 7 -34 11 -73 21 -87 24 -15 2 -49 9
-77 14 -27 5 -95 8 -150 7 -86 -2 -108 -6 -157 -29 -129 -63 -187 -191 -144
-315 32 -91 91 -141 336 -287 201 -120 275 -171 335 -233 51 -52 109 -163 123
-232 43 -226 -102 -464 -323 -532 -108 -33 -348 -48 -441 -28 -21 5 -53 11
-71 13 -33 5 -104 27 -178 53 l-40 15 1 97 c1 53 2 100 3 104 0 4 29 -6 64
-22 55 -25 175 -66 217 -75 225 -45 374 -22 470 74 58 58 81 119 75 202 -11
139 -80 210 -377 382 -197 115 -233 140 -299 208 -98 103 -140 209 -133 335 5
80 6 86 24 139 38 115 133 213 250 259 120 48 321 57 510 25z"/>
</g>
</svg>
